<?xml version="1.0" encoding="utf-8"?>
<svg version="1.1"
	xmlns="http://www.w3.org/2000/svg"
	xmlns:xlink="http://www.w3.org/1999/xlink" x="0px" y="0px" viewBox="0 0 512 512" style="enable-background:new 0 0 512 512;" xml:space="preserve">
	<path fill-rule="evenodd" clip-rule="evenodd" fill="#FF9900" d="M407.8,512H104.2C46.7,512,0,465.3,0,407.8V104.2C0,46.7,46.7,0,104.2,0h303.6C465.3,0,512,46.7,512,104.2
	v303.6C512,465.3,465.3,512,407.8,512z"/>
	<path fill="#fff" d="M396.4,380c-158.3,75.3-256.6,12.3-319.4-26c-3.9-2.4-10.5,0.6-4.8,7.2c21,25.4,89.6,86.6,179.2,86.6
		c89.7,0,143-48.9,149.7-57.5C407.7,381.8,403.1,377.2,396.4,380L396.4,380z M440.8,355.4c-4.3-5.5-25.9-6.6-39.4-4.9
		c-13.6,1.6-34,9.9-32.3,14.9c0.9,1.9,2.8,1,12.1,0.2c9.4-0.9,35.6-4.3,41.1,2.9c5.5,7.2-8.4,41.5-10.9,47.1c-2.4,5.5,0.9,7,5.5,3.3
		c4.5-3.7,12.8-13.2,18.3-26.7C440.7,378.6,444.1,359.6,440.8,355.4L440.8,355.4z"/>
	<path fill-rule="evenodd" clip-rule="evenodd" fill="#fff" d="M289.9,226.2c0,19.8,0.5,36.3-9.5,53.8c-8.1,14.3-20.8,23.1-35.1,23.1c-19.5,0-30.8-14.8-30.8-36.8
		c0-43.2,38.8-51.1,75.4-51.1V226.2z M341.1,349.9c-3.4,3-8.2,3.2-12,1.2c-16.8-14-19.8-20.5-29.1-33.8
		c-27.8,28.4-47.5,36.9-83.6,36.9c-42.7,0-75.9-26.3-75.9-79.1c0-41.2,22.3-69.2,54.1-82.9c27.5-12.1,66-14.3,95.4-17.6V168
		c0-12.1,0.9-26.3-6.1-36.8c-6.2-9.3-18.1-13.2-28.5-13.2c-19.3,0-36.6,9.9-40.8,30.5c-0.9,4.6-4.2,9.1-8.8,9.3l-49.2-5.3
		c-4.1-0.9-8.7-4.3-7.6-10.6c11.3-59.7,65.2-77.6,113.5-77.6c24.7,0,57,6.6,76.4,25.3c24.7,23.1,22.3,53.8,22.3,87.3v79.1
		c0,23.8,9.8,34.2,19.1,47c3.3,4.6,4,10.1-0.1,13.5c-10.3,8.6-28.8,24.7-38.9,33.7L341.1,349.9"/>
</svg>
